<?xml version="1.0" standalone="no"?>
<!DOCTYPE svg PUBLIC "-//W3C//DTD SVG 20010904//EN"
 "http://www.w3.org/TR/2001/REC-SVG-20010904/DTD/svg10.dtd">
<svg version="1.0" xmlns="http://www.w3.org/2000/svg"
 width="512.000000pt" height="512.000000pt" viewBox="0 0 512.000000 512.000000"
 preserveAspectRatio="xMidYMid meet">
<metadata>
Created by potrace 1.11, written by Peter Selinger 2001-2013
</metadata>
<g transform="translate(0.000000,512.000000) scale(0.100000,-0.100000)"
fill="#000000" stroke="none">
<path d="M3215 4372 c-58 -10 -87 -21 -106 -39 -23 -21 -30 -23 -48 -14 -26
14 -51 2 -100 -46 -32 -32 -33 -34 -16 -53 17 -18 18 -52 18 -439 1 -461 4
-432 -64 -500 -37 -37 -35 -42 45 -86 47 -25 163 -55 270 -69 64 -9 67 -11 51
-43 -11 -22 -13 -86 -10 -337 2 -171 6 -329 9 -351 2 -22 8 -107 11 -190 4
-82 11 -158 16 -167 14 -26 40 -22 87 12 55 42 80 85 88 155 3 32 8 68 10 79
5 23 11 174 19 511 5 210 11 305 20 351 3 15 31 32 102 65 170 75 264 134 303
189 26 37 25 40 -10 27 -16 -6 -31 -9 -34 -7 -2 3 -7 73 -11 155 -3 83 -8 179
-10 215 -2 36 -7 128 -11 205 -3 77 -8 160 -9 185 -2 25 -4 69 -4 98 l-1 53
-31 -16 c-30 -16 -30 -16 -19 4 9 18 7 21 -14 27 -14 3 -29 3 -35 0 -6 -4 -25
1 -42 9 -44 23 -58 25 -236 29 -108 2 -183 -2 -238 -12z"/>
<path d="M1847 3999 c-61 -14 -130 -54 -175 -103 -47 -51 -51 -60 -21 -51 18
6 20 4 13 -17 -4 -12 -6 -30 -5 -38 1 -8 2 -63 2 -122 1 -96 -1 -110 -22 -140
-34 -49 -65 -76 -119 -103 -56 -28 -84 -31 -120 -10 -41 23 -64 18 -105 -26
-30 -33 -36 -45 -28 -58 8 -13 6 -23 -9 -41 -17 -20 -19 -34 -14 -75 11 -80 9
-86 -29 -123 l-36 -35 5 -101 c10 -173 17 -596 18 -961 0 -197 4 -358 9 -367
10 -18 151 -118 167 -118 5 0 36 8 68 19 33 10 86 21 119 25 33 3 69 8 80 10
34 6 167 19 225 21 48 1 133 -8 265 -30 22 -3 84 -8 138 -10 143 -7 188 20
235 141 11 27 27 65 35 85 14 31 15 119 12 750 -2 393 -7 728 -10 746 -14 75
-40 138 -58 141 -11 2 -46 -8 -78 -23 -33 -14 -64 -25 -69 -23 -6 2 6 21 25
43 19 22 35 42 35 45 0 3 -25 3 -56 2 -46 -3 -62 0 -93 21 -21 14 -49 42 -61
62 -21 34 -23 48 -21 164 1 69 6 140 12 158 18 57 1 91 -65 125 -43 22 -201
32 -269 17z m300 -241 c1 -14 -5 -34 -12 -45 -13 -16 -14 -13 -15 30 0 34 4
47 12 45 7 -3 14 -16 15 -30z m256 -472 c4 -10 1 -13 -8 -9 -8 3 -12 9 -9 14
7 12 11 11 17 -5z m-955 -36 c23 -6 42 -14 42 -18 0 -4 -20 -20 -45 -36 -50
-31 -90 -91 -99 -146 -7 -47 -27 -297 -30 -372 0 -10 -4 -18 -8 -18 -9 0 -10
30 -10 278 l0 163 41 44 c36 39 43 52 43 75 0 3 -3 16 -7 28 -6 20 -4 23 12
19 10 -3 37 -11 61 -17z m-107 -1375 c20 -113 79 -209 142 -232 l32 -11 -29
-1 c-32 -1 -165 81 -167 102 -4 45 -4 234 1 242 3 6 6 -1 8 -15 1 -14 7 -52
13 -85z"/>
<path d="M3370 1993 c-45 -38 -52 -63 -55 -198 -5 -268 -40 -376 -163 -506
-52 -56 -62 -70 -42 -64 125 37 264 253 314 490 15 71 16 253 1 288 -10 23
-18 22 -55 -10z"/>
<path d="M3155 994 c-33 -8 -114 -18 -181 -24 -131 -10 -213 -32 -302 -82 -64
-36 -90 -71 -72 -93 13 -16 57 -38 100 -51 13 -3 64 -7 113 -8 125 -3 207 27
362 129 73 48 86 63 82 94 -4 40 -33 50 -102 35z"/>
</g>
</svg>
